<svg xmlns="http://www.w3.org/2000/svg" xmlns:xlink="http://www.w3.org/1999/xlink" id="Layer_1" x="0px" y="0px" width="140.3px" height="100px" viewBox="0 0 140.3 100" style="enable-background:new 0 0 140.3 100;" xml:space="preserve"><style type="text/css">	.st0{fill:#CE9B51;stroke:#1B1363;stroke-width:2;stroke-linecap:round;stroke-linejoin:round;stroke-miterlimit:10;}	.st1{fill:none;stroke:#1B1363;stroke-width:2;stroke-linecap:round;stroke-linejoin:round;stroke-miterlimit:10;}	.st2{fill:#F3E6D2;stroke:#1B1363;stroke-width:2;stroke-linecap:round;stroke-linejoin:round;stroke-miterlimit:10;}</style><g>	<path class="st0" d="M100.5,17c0,0,5.2-13.5,23-15.7l-5.8,10.6"></path>	<path class="st0" d="M102,18.5c0,0,14.7-12.9,31.6-2.7c0,0-15.9,10.3-26.6,7.6L102,18.5z"></path>	<g>		<path class="st0" d="M75,21c0,0-3-14.2-20.1-19.2l4,11.4"></path>		<path class="st0" d="M73.3,22.3c0,0-12.4-15.1-30.8-7.8c0,0,14,12.8,25,11.8L73.3,22.3z"></path>	</g>	<g>		<path class="st1" d="M106.1,35.5c0,0,9.9,9.6,5,19s-31,26.6-43.6,8.3c0,0,5-11.4,6.9-17.3C76.3,39.6,87.5,23.4,106.1,35.5z"></path>		<path class="st1" d="M105.4,35.1c0,0,4.1-5,6-5"></path>	</g>	<g>		<path class="st1" d="M127.1,64.2c4.4-0.8,8.5-3.1,11.7-7.8c0,0-5-11.4-6.9-17.3c-1.6-5.2-10.6-18.5-25.5-13.1"></path>	</g>	<g>		<path class="st1" d="M18.8,43.7c0,0-9.9,9.6-5,19s31,26.6,43.6,8.3c0,0-5-11.4-6.9-17.3S37.4,31.5,18.8,43.7z"></path>		<path class="st1" d="M19.6,43.2c0,0-4.1-5-6-5"></path>	</g>	<g>		<path class="st1" d="M39.5,41.1c0,0,3.3-17.8,20.3-15.5S85.4,48.4,55.7,67"></path>		<path class="st1" d="M65.2,27.1c0,0,1.1-5.1,4.8-6.3"></path>	</g>	<g>		<path class="st1" d="M39,41.1c0,0-3.3-17.8-20.3-15.5c-14.7,2-23,17.5-6.1,33.6"></path>		<path class="st1" d="M13.3,27.1c0,0-1.1-5.1-4.8-6.3"></path>	</g>	<g>		<path class="st1" d="M108.4,31.8c0,0-3.7-19.9-20.8-17.6c-9.8,1.3-16.8,8.7-15.3,18.2"></path>		<path class="st1" d="M82.2,15.8c0,0-1.1-5.1-4.8-6.3"></path>	</g>	<path class="st0" d="M22.6,41.6c0,0-1.3-9.4,12.3-11.7s19.8,5.8,19.8,5.8S40.4,48.2,22.6,41.6z"></path>	<path class="st0" d="M15,65c0,0-10.7,5-13.8,15.4c0,0,12.3,3.3,24-6.9C25.2,73.6,19.3,69.3,15,65z"></path>	<path class="st0" d="M53.8,62.5c0,0,10.1-10.4,27.3-5.5l-9.5,7.5"></path>	<path class="st0" d="M54.6,64.5c0,0,18.5-6.1,30.2,9.9c0,0-18.7,3.3-27.4-3.4L54.6,64.5z"></path>	<g>		<path class="st2" d="M93.8,49.5c0,0-9.9,9.6-5,19c4.8,9.4,31,26.6,43.6,8.3c0,0-5-11.4-6.9-17.3C123.6,53.7,112.3,37.4,93.8,49.5z   "></path>		<path class="st2" d="M94.5,49.1c0,0-4.1-5-6-5"></path>	</g>	<g>		<path class="st2" d="M55.1,63.3c0,0,9.9,9.6,5,19c-4.8,9.4-31,26.6-43.6,8.3c0,0,5-11.4,6.9-17.3S36.5,51.1,55.1,63.3z"></path>		<path class="st2" d="M54.4,62.8c0,0,4.1-5,6-5"></path>	</g></g></svg>