<svg xmlns="http://www.w3.org/2000/svg" xmlns:xlink="http://www.w3.org/1999/xlink" id="Layer_1" x="0px" y="0px" width="100px" height="100px" viewBox="0 0 100 100" style="enable-background:new 0 0 100 100;" xml:space="preserve"><style type="text/css">	.st0{fill:none;stroke:#1B1363;stroke-width:2;stroke-linecap:round;stroke-linejoin:round;stroke-miterlimit:10;}	.st1{fill:#CE9B51;stroke:#1B1363;stroke-width:2;stroke-linecap:round;stroke-linejoin:round;stroke-miterlimit:10;}</style><g>	<g>		<path class="st0" d="M52.9,19.9c-2.4-2.6-8.3-5-14.3,1.4s-5.4,21.4,1.4,21.1c1.8-0.1,1.2-3.8,5.2-4.9C48,36.7,60.5,28,52.9,19.9z"></path>		<path class="st0" d="M63.9,27.6c1.3,3.8,0.6,7.7-0.4,10.6"></path>		<path class="st0" d="M55.5,20.8V18l-1.6,2.8c0.3,0,0.6,0,0.9,0c1.9,0,2.7,0.2,4.8,1"></path>		<line class="st0" x1="55.5" y1="18" x2="55.5" y2="1.4"></line>		<path class="st1" d="M59.8,18.9c0,0-2.5,9.5,11,10.4C70.8,29.3,70.5,16.7,59.8,18.9z"></path>		<path class="st1" d="M55.3,13.1c0,0-0.4,4.4-6.2,2.7C49,15.8,51.1,10.6,55.3,13.1z"></path>		<path class="st0" d="M59.6,18.6c0,0-1.1-1.7-4.1-3"></path>	</g>	<path class="st0" d="M42.4,22.3c0,0-6.3,3.2-4.5,12.8"></path>	<path class="st0" d="M47.6,69.6c-5.2-0.1-12.4-8.5-12.4-15.7c0-8.8,5.9-11.1,9.5-10.9c0.2,0,0.4,0,0.6,0.1c0,0,0.7,0.1,1.6,0.7"></path>	<line class="st0" x1="43.6" y1="42.8" x2="43.3" y2="38"></line>	<path class="st1" d="M43.2,37.9c0,0-0.4,5.3-7.5,3.5C35.7,41.4,38,34.9,43.2,37.9z"></path>	<path class="st0" d="M38.2,52.1c0,0-2.4,6.5,5.3,12.3"></path>	<g>		<path class="st0" d="M55.2,40.6c2.4-2.6,8.3-5,14.3,1.4s5.4,21.4-1.4,21.1c-1.8-0.1-1.2-3.8-5.2-4.9   C60.1,57.4,47.6,48.7,55.2,40.6z"></path>		<line class="st0" x1="52.6" y1="38.7" x2="52.6" y2="41.5"></line>		<path class="st0" d="M64.5,58.9C62,67.9,53,75.9,48,71.4c-1.6-1.4,1.5-3.9-1.2-7.9c-1.2-1.7-4.9-8.4-2.7-15.2c0,0,1.1-3.6,4.3-5.9   c1.8-1.3,2.9-0.9,4.8-1c0.3,0,0.6,0,0.9,0"></path>		<line class="st0" x1="52.6" y1="38.7" x2="52.6" y2="32"></line>		<path class="st1" d="M52.8,33.8c0,0,0.4,4.4,6.3,2.8C59.1,36.6,57.1,31.2,52.8,33.8z"></path>	</g>	<path class="st0" d="M59.6,60.1c0,0,0.5,7.3-8,10"></path>	<path class="st0" d="M66.3,43.5c-1.2-0.6,6.7,4.4,3.3,15.4"></path>	<path class="st0" d="M49,35.3c0,0-1.1,3.4,2.1,6"></path>	<g>		<path class="st0" d="M34.7,66.5c-2.4-2.6-8.3-5-14.3,1.4c-6,6.4-5.4,21.4,1.4,21.1c1.8-0.1,1.2-3.8,5.2-4.9   C29.8,83.4,42.3,74.6,34.7,66.5z"></path>		<line class="st0" x1="37.3" y1="64.6" x2="37.3" y2="67.4"></line>		<path class="st0" d="M25.4,84.8c2.5,9,11.5,17,16.5,12.4c1.6-1.4-1.5-3.9,1.2-7.9c1.2-1.7,4.9-8.4,2.7-15.2c0,0-1.1-3.6-4.3-5.9   c-1.8-1.3-2.9-0.9-4.8-1c-0.3,0-0.6,0-0.9,0"></path>		<line class="st0" x1="37.3" y1="64.6" x2="37.3" y2="61.1"></line>		<path class="st1" d="M37,63.3c0,0-0.4,5-7.1,3.1C29.9,66.4,32.2,60.3,37,63.3z"></path>	</g>	<g>		<path class="st0" d="M29.1,35.3c-0.7-3.5-4.6-8.5-13-6.1S0.4,44.7,6.3,48c1.6,0.9,3-2.6,6.9-1.5C16.2,47.3,31.4,46.2,29.1,35.3z"></path>		<line class="st0" x1="32.3" y1="35" x2="30.8" y2="37.4"></line>		<path class="st0" d="M11.6,46.2c-2.4,9,1.2,20.5,7.8,19.1c2.1-0.4,0.7-4.1,5.1-6.1c1.9-0.9,8.5-4.7,10.1-11.7c0,0,0.9-3.6-0.7-7.3   c-0.9-2-2-2.3-3.6-3.3c-0.3-0.2-0.5-0.3-0.8-0.5"></path>		<line class="st0" x1="32.3" y1="35" x2="34" y2="32"></line>		<path class="st1" d="M33.3,33c0,0-4.3,5.9-11.3-1.4C22,31.6,29.5,25.7,33.3,33z"></path>	</g>	<path class="st0" d="M29,85.5c0,0,1.4,7.9,10.3,10.5"></path>	<path class="st0" d="M23.6,69.4c1.2-0.6-6.7,4.4-3.3,15.4"></path>	<g>		<path class="st0" d="M74,67.6c1.7-2.8,6.7-6,13.3-1.2s8.7,18.5,2.5,19.4c-1.6,0.3-1.8-3.2-5.6-3.5C81.4,82,68.5,76.3,74,67.6z"></path>		<line class="st0" x1="71.3" y1="66.3" x2="71.8" y2="68.8"></line>		<path class="st0" d="M66.5,72.9c0.4-0.8,1-1.7,1.7-2.5c1.4-1.5,2.5-1.4,4.2-1.7c0.3-0.1,0.6-0.1,0.9-0.1"></path>		<path class="st0" d="M85.7,82.6C85,91.2,78.2,100,72.9,96.8c-1.7-1,0.7-3.8-2.5-6.9c-0.5-0.5-1.4-1.5-2.3-2.8"></path>		<line class="st0" x1="71.3" y1="66.3" x2="70.7" y2="63.2"></line>		<path class="st1" d="M71,64.3c0,0,1.9,6.5,10.3,2.3C81.3,66.6,76.6,59.2,71,64.3z"></path>	</g>	<g>		<path class="st0" d="M71.7,32.8c0.4-2.6,3.1-6.6,9.6-5.1c6.5,1.5,12.4,11.1,8.1,13.8c-1.1,0.7-2.4-1.9-5.3-0.9   C81.8,41.4,70.4,41.1,71.7,32.8z"></path>		<line class="st0" x1="69.3" y1="32.7" x2="70.4" y2="34.5"></line>		<path class="st0" d="M67.8,39.2c0.1-0.7,0.2-1.6,0.5-2.4c0.6-1.5,1.4-1.8,2.6-2.6c0.2-0.1,0.4-0.3,0.6-0.4"></path>		<path class="st0" d="M85.3,40.4c2.2,6.7-0.1,15.5-5.1,14.8c-1.6-0.2-0.7-3.1-4.1-4.4c-0.5-0.2-1.5-0.7-2.6-1.4"></path>		<line class="st0" x1="69.3" y1="32.7" x2="66.5" y2="28.7"></line>		<path class="st1" d="M68.4,31.3c0,0,3.5,4.3,8.4-1.5C76.8,29.8,71,25.7,68.4,31.3z"></path>	</g>	<g>		<path class="st0" d="M59.9,70.4c3.5-0.3,9.5,2,9.5,10.8s-10.6,19.3-15.4,14.6c-1.3-1.3,1.7-3.6-0.5-7.1   C52,86.1,48.8,71.2,59.9,70.4z"></path>		<path class="st0" d="M64.6,87.1c-1.1,2.1-3.2,4.3-6.7,6.3"></path>		<path class="st0" d="M61.8,70.5c0,0,0.9-1.6-0.5-4.7"></path>	</g>	<path class="st0" d="M8.1,41.4c0,0,2.3-7,8.6-7.9"></path>	<path class="st0" d="M31.6,43.4c0,0-0.1,6.8-4.9,10.1"></path>	<path class="st1" d="M61.4,70.1c0,0,7.3,0.9,4.1,10.6C65.6,80.7,56.9,77,61.4,70.1z"></path></g></svg>