<svg xmlns="http://www.w3.org/2000/svg" xmlns:xlink="http://www.w3.org/1999/xlink" id="Layer_1" x="0px" y="0px" width="115px" height="100px" viewBox="0 0 115 100" style="enable-background:new 0 0 115 100;" xml:space="preserve"><style type="text/css">	.st0{fill:none;stroke:#1B1363;stroke-width:2;stroke-linecap:round;stroke-linejoin:round;stroke-miterlimit:10;}	.st1{fill:#CE9B51;stroke:#1B1363;stroke-width:2;stroke-linecap:round;stroke-linejoin:round;stroke-miterlimit:10;}</style><g>	<path class="st0" d="M27.2,58.1c0,0,6.9,27.7,40.6,31.9"></path>	<path class="st1" d="M33.9,14.4c0,0-15.5-4.1-25.3,13.2S12.1,67.5,2.5,74c0,0,11.1-2,15.7-9.6C18.2,64.4,3.6,30.2,33.9,14.4z"></path>	<g>		<path class="st1" d="M33.9,14.4c0,0-1.7-6.4-3-6.4c0,0,1.5-3.7,4.8-2.8c0,0,0.8,5.3,4.6,6"></path>		<path class="st0" d="M31.9,15.7c3.6-2.4,8.8-5.5,16.3-6.1C54.6,9,71.5,8.9,83.6,22.9s8.8,27.6,7.5,33.3c-1.3,5.7,0,15.9,3.8,18.7   c3.8,2.8,1.9,10.2-4.4,15.2c-6.3,5-24.8,14.3-46.6,2.5S16.2,65.3,14.8,46.9S24.5,20.6,31.9,15.7z"></path>	</g>	<g>		<path class="st1" d="M61.9,9.1c0,0-1.3-5.1-2.4-5.1c0,0,1.2-3,3.9-2.2c0,0,0.7,4.3,3.7,4.8"></path>		<path class="st0" d="M60.4,10.1c2.9-1.9,7-4.4,13.1-4.9c5.1-0.4,18.7-0.5,28.4,10.7s7.1,22.2,6.1,26.7s0,12.7,3,15   c3,2.3,1.5,8.2-3.5,12.2c-2.2,1.8-6.4,4.2-11.8,5.6"></path>	</g></g></svg>